<?xml version="1.0" encoding="UTF-8"?>
<!-- Generator: Adobe Illustrator 27.1.1, SVG Export Plug-In . SVG Version: 6.00 Build 0)  -->
<svg xmlns="http://www.w3.org/2000/svg" xmlns:xlink="http://www.w3.org/1999/xlink" version="1.1" id="Layer_1" x="0px" y="0px" viewBox="0 0 49.8 50.4" style="enable-background:new 0 0 49.8 50.4;" xml:space="preserve">
<style type="text/css">
	.st0{fill:#FFFFFF;}
	.st1{fill:#45C655;}
	.st2{fill:#4AC959;}
</style>
<path id="Path_50_00000111152859767535435200000001480747545086567314_" class="st0" d="M1.9,49.7c-0.7,0-1.2-0.5-1.2-1.2  c0-0.1,0-0.3,0.1-0.4l3.9-10.6C1.8,33,0.5,27.6,0.9,22.3C1.9,10.1,12.1,0.7,24.3,0.7c6.5,0,12.8,2.6,17.4,7.3  c9.5,9.5,9.7,24.8,0.4,34.1C37.8,46.5,31.8,49,25.5,49l0,0c-4.6,0-9.1-1.3-13-3.7L2.4,49.6C2.2,49.7,2.1,49.7,1.9,49.7L1.9,49.7z"></path>
<path id="Path_49" class="st1" d="M32,39.4L32,39.4c-4.6,0-9.8-2.5-14.4-7l0,0c-4.4-4.6-7-9.8-7-14.4c0.1-1.9,1-3.7,2.4-5  c1.1-1.1,2.7-2.1,3.8-2.1c1.7,0,2.2,0.8,2.9,2.1c0.2,0.3,0.4,0.6,0.6,1.1c0.1,0.2,0.3,0.5,0.5,0.8c1.3,1.9,2.1,3.3,1.6,4.4  c-0.5,0.9-1.2,1.7-2.1,2.3c-0.4,0.3-0.7,0.6-1,0.9c0.2,0.9,1.3,2.8,3.4,4.8s3.9,3.2,4.8,3.4c0.3-0.3,0.6-0.6,0.9-1  c0.6-0.9,1.4-1.6,2.3-2.1c0.2-0.1,0.4-0.1,0.7-0.1c1,0,2.2,0.7,3.8,1.8c0.3,0.2,0.6,0.4,0.8,0.5c0.4,0.2,0.8,0.4,1.1,0.6  c1.2,0.7,2.1,1.2,2.1,2.9c0,1.1-1.1,2.7-2.1,3.8C35.7,38.5,33.9,39.3,32,39.4C32,39.4,32,39.4,32,39.4z M19.3,30.8  c4.1,3.9,8.8,6.3,12.7,6.3c2.4,0,4.6-3.1,4.7-3.8c0-0.1,0-0.2,0-0.3c-0.3-0.2-0.5-0.4-0.8-0.5c-0.3-0.2-0.7-0.4-1.1-0.6  c-0.3-0.2-0.6-0.4-0.9-0.6c-0.7-0.5-1.5-1-2.4-1.4c-0.5,0.4-0.9,0.9-1.2,1.3c-0.8,1-1.5,1.9-2.5,1.9c-2.4,0-5.7-3.1-6.7-4.1  c-1-1-4.1-4.3-4.1-6.7c0-1,0.9-1.7,1.9-2.5c0.5-0.4,0.9-0.8,1.3-1.2c-0.4-0.8-0.8-1.6-1.4-2.4c-0.2-0.3-0.4-0.6-0.6-0.9  c-0.3-0.4-0.5-0.8-0.6-1.1c-0.1-0.3-0.3-0.6-0.5-0.8c-0.1,0-0.2,0-0.3,0c-0.8,0.1-3.8,2.4-3.8,4.7C13,21.9,15.4,26.7,19.3,30.8  L19.3,30.8L19.3,30.8z"></path>
<path id="Path_50" class="st2" d="M1.9,49.7c-0.7,0-1.2-0.5-1.2-1.2c0-0.1,0-0.3,0.1-0.4l3.9-10.6C1.8,33,0.5,27.6,0.9,22.3  C1.9,10.1,12.1,0.7,24.3,0.7c6.5,0,12.8,2.6,17.4,7.3c9.5,9.5,9.7,24.8,0.4,34.1C37.8,46.5,31.8,49,25.5,49l0,0  c-4.6,0-9.1-1.3-13-3.7L2.4,49.6C2.2,49.7,2.1,49.7,1.9,49.7L1.9,49.7z M12.7,42.7c0.2,0,0.5,0.1,0.7,0.2c3.6,2.4,7.9,3.7,12.2,3.7  c5.6,0,11-2.2,15-6.2c8.4-8.4,8.2-22.1-0.4-30.7c-4.2-4.2-9.8-6.6-15.8-6.6c-5.6,0-11,2.2-15,6.2C2.1,16.7,1.2,28.1,7,36.6  c0.2,0.3,0.3,0.7,0.1,1.1L4,46.3l8.3-3.5C12.4,42.7,12.5,42.7,12.7,42.7L12.7,42.7L12.7,42.7z"></path>
</svg>
